Coordinates
version=1
nRows=8
nColumns=36
inDegrees=yes

Units are S.I. units (second, meters, Newtons, ...)
If the header above contains a line with 'inDegrees', this indicates whether rotational values are in degrees (yes) or radians (no).

endheader
time	pelvis_tilt	pelvis_list	pelvis_rotation	pelvis_tx	pelvis_ty	pelvis_tz	hip_flexion_r	hip_adduction_r	hip_rotation_r	knee_angle_r	knee_angle_r_beta	ankle_angle_r	subtalar_angle_r	mtp_angle_r	hip_flexion_l	hip_adduction_l	hip_rotation_l	knee_angle_l	knee_angle_l_beta	ankle_angle_l	subtalar_angle_l	mtp_angle_l	lumbar_extension	lumbar_bending	lumbar_rotation	arm_flex_r	arm_add_r	arm_rot_r	elbow_flex_r	pro_sup_r	arm_flex_l	arm_add_l	arm_rot_l	elbow_flex_l	pro_sup_l
      2.90000000	     -4.93744810	     -7.53237587	      3.66942153	      0.81629783	      0.92641857	      0.04327271	     34.46588760	      6.37409003	      7.12514430	     16.65125105	      0.29061916	      3.17839593	     -5.85191328	     -7.49999986	      0.88419696	     -1.50603969	      1.99333286	      3.32145417	      0.05797031	     17.30079542	     -2.91752650	     -7.49999986	     -0.17607465	      3.46967180	     -4.40635625	     26.85906261	      2.24835897	     64.39002012	    111.14177414	     96.55613028	     35.03176265	     -5.47876912	     68.51417148	    109.04811817	     96.97753822
      2.91666670	     -4.51409110	     -7.65837160	      3.47024572	      0.81542300	      0.92407639	      0.04849160	     33.58095211	      6.78201948	      7.61881358	     15.94953902	      0.27837197	      2.74955897	     -6.68665287	     -7.49999986	      0.50124154	     -1.71125051	      1.91580954	      3.63680924	      0.06347430	     17.80614971	     -2.88146776	     -7.49999986	     -0.38168415	      3.56393404	     -4.52107467	     26.96759618	      2.63033619	     64.73351874	    111.03771553	     96.45473787	     35.37386678	     -5.77301822	     68.70776013	    109.32530858	     96.82110635
      2.93333330	     -4.45462655	     -7.46055164	      3.20825747	      0.80825499	      0.92193415	      0.04531713	     33.55697742	      6.70627227	      7.98998768	     15.38576106	      0.26853219	      2.57343880	     -6.50039079	     -7.49999986	      0.75396245	     -1.49927491	      1.85850546	      4.14785711	      0.07239376	     18.08752366	     -3.08066642	     -7.49999986	     -0.40358784	      3.23790265	     -4.60702173	     27.28270272	      2.87276040	     64.70505056	    111.17842883	     96.43693108	     35.99347901	     -5.84826849	     68.52369440	    109.42481756	     96.79634453
      2.95000000	     -4.25617854	     -7.54824970	      3.10372491	      0.81457763	      0.92322603	      0.04854512	     33.03162271	      6.88611630	      8.36906087	     14.45614158	      0.25230727	      2.25540733	     -7.35883512	     -7.49999986	      0.79156699	     -1.63728104	      1.79091001	      4.78903578	      0.08358444	     18.65850611	     -3.32051793	     -7.49999986	     -0.49782868	      3.28918094	     -4.81579156	     27.34566367	      3.08424098	     64.87204336	    111.30632774	     96.19159168	     36.20869296	     -6.34923137	     68.89214488	    109.80130810	     96.62570794
      2.96666670	     -4.10906516	     -7.70427109	      2.97530391	      0.82070160	      0.92207593	      0.04672375	     32.35337593	      7.07877236	      8.56181911	     13.67372709	      0.23865156	      2.40724629	     -7.64529850	     -7.49999986	      0.49426013	     -1.82777592	      1.73247703	      4.96117933	      0.08658891	     19.12013696	     -3.34080951	     -7.49999986	     -0.30804397	      3.47605145	     -4.95272764	     26.93179199	      3.12689590	     65.13574830	    111.95483735	     96.07194374	     35.91872835	     -6.44532274	     68.77130201	    110.05782292	     96.50307779
      2.98333330	     -3.92582315	     -7.73632353	      2.85564414	      0.81476100	      0.92395437	      0.04278069	     31.86609290	      7.09378694	      8.84080675	     12.95579357	      0.22612126	      2.26376545	     -7.77092510	     -7.49999986	      0.40263167	     -1.84751128	      1.80418617	      5.29945224	      0.09249289	     19.48570052	     -3.31574913	     -7.49999986	     -0.50608262	      3.52663135	     -5.16995965	     27.15569384	      2.98011668	     65.44272843	    112.16770396	     95.93598010	     35.98930874	     -6.50961239	     68.47621340	    109.98097033	     96.34309119
      3.00000000	     -3.99033868	     -7.68791645	      2.73333372	      0.81403455	      0.92434291	      0.04304209	     31.72025635	      6.97564484	      8.85051991	     12.41999621	      0.21676983	      2.24859209	     -7.76295171	     -7.49999986	      0.60649028	     -1.74655048	      1.86052548	      5.60262126	      0.09778419	     19.67559907	     -3.62036100	     -7.49999986	     -0.36775730	      3.46416476	     -5.32948756	     27.36306082	      2.75398146	     65.87934624	    112.64708963	     94.10227678	     36.00481136	     -6.62705287	     68.55696627	    109.99442689	     94.45305711
      3.01666670	     -3.89273436	     -7.32939815	      2.76671221	      0.80184373	      0.92019318	      0.04210914	     32.18996788	      6.49349607	      8.73257482	     12.47724762	      0.21776905	      1.83998991	     -7.76349600	     -7.49999986	      0.82210511	     -1.30736209	      1.96499298	      5.88332605	      0.10268341	     19.88870092	     -3.63857461	     -7.49999986	     -0.80639100	      3.01881981	     -5.56350308	     28.48511545	      2.89596455	     65.64319989	    112.44506684	     94.09172682	     37.33406590	     -6.65612391	     68.26731794	    109.95878430	     94.45756987
